<svg xmlns="http://www.w3.org/2000/svg" viewBox="0 0 600 600" width="600" height="600">
  <rect width="100%" height="100%" fill="white"/>
  <path d="M 285 30 L 310 31 L 328 38 L 339 46 L 350 59 L 358 80 L 380 82 L 396 89 L 418 111 L 425 130 L 425 310 L 430 312 L 418 321 L 423 310 L 423 133 L 416 113 L 399 94 L 387 87 L 373 83 L 355 83 L 354 74 L 344 55 L 330 42 L 321 37 L 308 33 L 289 32 L 263 40 L 244 58 L 235 78 L 208 80 L 188 90 L 176 102 L 170 112 L 165 131 L 147 132 L 129 139 L 110 157 L 102 173 L 100 184 L 100 308 L 102 318 L 98 357 L 98 427 L 105 460 L 119 488 L 131 504 L 147 520 L 169 535 L 193 545 L 226 550 L 311 550 L 342 545 L 367 534 L 391 516 L 499 409 L 511 394 L 518 380 L 522 365 L 521 344 L 514 328 L 499 312 L 487 305 L 472 301 L 457 301 L 433 310 L 431 308 L 446 301 L 462 298 L 480 300 L 498 308 L 513 322 L 521 336 L 525 351 L 524 369 L 520 382 L 506 405 L 404 507 L 374 533 L 352 544 L 327 551 L 303 553 L 207 551 L 175 541 L 144 521 L 130 507 L 116 488 L 100 453 L 95 421 L 96 343 L 100 315 L 98 312 L 98 180 L 102 166 L 114 148 L 133 134 L 149 129 L 162 128 L 168 110 L 185 89 L 206 78 L 233 75 L 243 55 L 256 42 L 270 34 L 284 31 Z" fill="black" stroke="none"/>
  <path d="M 188 293 L 335 293 L 360 301 L 378 319 L 384 337 L 384 362 L 360 356 L 330 354 L 314 357 L 297 364 L 279 380 L 272 391 L 265 412 L 265 428 L 278 427 L 281 424 L 284 405 L 291 392 L 305 379 L 321 372 L 335 370 L 356 371 L 374 375 L 392 383 L 399 383 L 446 345 L 462 337 L 469 337 L 477 341 L 482 346 L 486 359 L 475 381 L 387 469 L 349 502 L 330 510 L 312 513 L 222 513 L 209 511 L 180 499 L 158 479 L 141 451 L 135 422 L 136 347 L 140 319 L 147 308 L 156 301 L 169 296 L 187 294 Z" fill="black" stroke="none"/>
  <path d="M 360 118 L 370 119 L 378 123 L 383 128 L 387 138 L 387 300 L 378 292 L 365 285 L 337 278 L 337 140 L 341 128 L 346 123 L 359 119 Z" fill="black" stroke="none"/>
  <path d="M 161 167 L 177 172 L 182 177 L 185 185 L 186 275 L 159 282 L 144 291 L 137 298 L 137 187 L 141 178 L 148 171 L 160 168 Z" fill="black" stroke="none"/>
  <path d="M 292 68 L 303 69 L 309 72 L 316 79 L 320 93 L 320 274 L 270 274 L 270 90 L 274 79 L 281 72 L 291 69 Z" fill="black" stroke="none"/>
  <path d="M 223 114 L 233 114 L 241 117 L 248 123 L 252 133 L 252 274 L 203 274 L 203 131 L 211 119 L 222 115 Z" fill="black" stroke="none"/>
</svg>